<svg width="60" height="64" viewBox="0 0 60 64" fill="none" xmlns="http://www.w3.org/2000/svg">
<path d="M28.5708 64L29.2855 50.2948C29.2959 50.0694 29.2556 49.8445 29.1676 49.6368C29.0796 49.429 28.9461 49.2437 28.7769 49.0943C28.6078 48.945 28.4073 48.8355 28.1902 48.7739C27.9732 48.7123 27.7451 48.7002 27.5227 48.7385L13.881 51.1365L15.7232 46.0546C15.7979 45.8524 15.8075 45.6318 15.7505 45.4239C15.6936 45.216 15.573 45.0312 15.4056 44.8953L0.46167 32.794L3.82842 31.2218C4.0558 31.1144 4.23614 30.9276 4.33556 30.6966C4.43498 30.4656 4.44665 30.2062 4.36837 29.9672L1.41452 20.8834L10.022 22.7097C10.2552 22.7583 10.498 22.7248 10.7093 22.6148C10.9206 22.5048 11.0873 22.3251 11.1813 22.1062L12.8488 18.1836L19.5664 25.3935C19.72 25.5556 19.922 25.6634 20.142 25.7009C20.3621 25.7384 20.5884 25.7036 20.787 25.6016C20.9856 25.4996 21.1458 25.336 21.2436 25.1353C21.3413 24.9346 21.3713 24.7076 21.3292 24.4883L18.0895 7.78164L23.2825 10.7831C23.4044 10.8546 23.5397 10.9002 23.68 10.9173C23.8203 10.9343 23.9626 10.9224 24.0981 10.8822C24.2336 10.842 24.3594 10.7744 24.4677 10.6836C24.576 10.5928 24.6645 10.4807 24.7277 10.3543L30.0001 0L35.2726 10.3543C35.3358 10.4807 35.4243 10.5928 35.5326 10.6836C35.6409 10.7744 35.7667 10.842 35.9022 10.8822C36.0377 10.9224 36.1799 10.9343 36.3202 10.9173C36.4605 10.9002 36.5958 10.8546 36.7177 10.7831L41.9108 7.78164L38.6711 24.4883C38.6289 24.7076 38.659 24.9346 38.7567 25.1353C38.8545 25.336 39.0146 25.4996 39.2132 25.6016C39.4118 25.7036 39.6381 25.7384 39.8582 25.7009C40.0783 25.6634 40.2803 25.5556 40.4339 25.3935L47.1515 18.1836L48.819 22.1062C48.9129 22.3251 49.0797 22.5048 49.291 22.6148C49.5023 22.7248 49.7451 22.7583 49.9783 22.7097L58.5857 20.8834L55.6319 29.9672C55.5536 30.2062 55.5653 30.4656 55.6647 30.6966C55.7641 30.9276 55.9445 31.1144 56.1718 31.2218L59.5386 32.794L44.5947 44.8953C44.4273 45.0312 44.3067 45.216 44.2497 45.4239C44.1927 45.6318 44.2023 45.8524 44.2771 46.0546L46.1192 51.1365L32.4775 48.7385C32.2552 48.7002 32.0271 48.7123 31.81 48.7739C31.593 48.8355 31.3925 48.945 31.2233 49.0943C31.0542 49.2437 30.9207 49.429 30.8327 49.6368C30.7447 49.8445 30.7044 50.0694 30.7148 50.2948L31.4294 64H28.5708Z" fill="#CC0000"/>
</svg>
