<svg width="80" height="80" viewBox="0 0 80 80" fill="none" xmlns="http://www.w3.org/2000/svg">
<rect width="80" height="80" rx="20" fill="#FC9374"/>
<path fill-rule="evenodd" clip-rule="evenodd" d="M42.182 21C42.2075 21 42.2337 21.0008 42.26 21.003C51.2193 21.621 58.3786 28.7805 58.9974 37.74C59.0439 38.4233 58.4679 39 57.7824 39H41V22.2172C41 21.558 41.5325 21 42.182 21ZM54.812 42.5812H37.419V25.1882C37.419 24.5409 36.8928 24 36.2653 24C36.214 24 36.1627 24.0037 36.1107 24.011C27.383 25.2439 20.7099 32.864 21.0097 41.9999C21.308 51.0911 28.9098 58.6921 38.0003 58.9905C38.1975 58.9971 38.3954 59 38.5918 59C47.4638 59 54.7827 52.4281 55.9892 43.8888C56.0867 43.1961 55.5113 42.5812 54.812 42.5812ZM39.4216 56C39.2601 56 39.0963 55.997 38.9333 55.9917C31.4989 55.7477 25.252 49.502 25.0079 42.0691C24.7983 35.6657 28.7829 30.0433 34.6145 28V46.3878H53C50.9998 52.0245 45.5851 56 39.4216 56Z" fill="white"/>
</svg>
