<svg width="80" height="80" viewBox="0 0 80 80" fill="none" xmlns="http://www.w3.org/2000/svg">
<rect width="80" height="80" rx="20" fill="#876AFF"/>
<path fill-rule="evenodd" clip-rule="evenodd" d="M42.413 55.4375H49.8371C51.3133 55.4375 52.5097 56.6339 52.509 58.1094C52.509 58.6014 52.1104 59 51.6183 59H29.6422C29.1501 59 28.7515 58.6014 28.7515 58.1094C28.7515 56.6339 29.9479 55.4375 31.4242 55.4375H38.849V53.0298C35.3206 52.9074 31.8212 51.7511 28.8503 49.5453L26.8679 51.5269C26.4033 51.9908 25.6514 51.9908 25.1876 51.5269L24.3481 50.6882C23.8843 50.2244 23.8843 49.4725 24.3481 49.0087L28.73 44.6275C28.7596 44.6613 28.789 44.6952 28.8185 44.729C28.9948 44.9315 29.1711 45.1339 29.3631 45.3259C32.0558 48.0178 35.6353 49.5 39.4428 49.5C43.2502 49.5 46.8297 48.0171 49.5224 45.3259C52.2151 42.6348 53.6979 39.0567 53.6979 35.25C53.6979 31.4433 52.2151 27.8645 49.5224 25.1733C49.3399 24.9914 49.1475 24.8233 48.9553 24.6553C48.9115 24.617 48.8677 24.5787 48.824 24.5402L52.0176 21.3481C52.4822 20.8842 53.2341 20.8842 53.6979 21.3481L54.5374 22.1868C55.0012 22.6506 55.0012 23.4025 54.5374 23.8663L53.7432 24.6605C58.9252 31.6326 58.37 41.52 52.0429 47.8449C49.3213 50.5665 45.9384 52.2127 42.413 52.8005V55.4375ZM39.4428 47.125C46.0037 47.125 51.3222 41.8087 51.3222 35.25C51.3222 28.695 46.0074 23.375 39.4428 23.375C32.8818 23.375 27.5633 28.6913 27.5633 35.25C27.564 41.8043 32.8781 47.125 39.4428 47.125ZM39.4428 26.9375C44.0354 26.9375 47.7582 30.6588 47.7582 35.25C47.7582 39.8412 44.0354 43.5625 39.4428 43.5625C34.8501 43.5625 31.1273 39.8412 31.1273 35.25C31.1273 30.6588 34.8501 26.9375 39.4428 26.9375Z" fill="white"/>
</svg>
