<svg width="80" height="80" viewBox="0 0 80 80" fill="none" xmlns="http://www.w3.org/2000/svg">
<rect width="80" height="80" rx="20" fill="#89C1C2"/>
<path fill-rule="evenodd" clip-rule="evenodd" d="M56.625 42.375H49.3805L54.5031 37.2524C55.4308 36.3247 55.4308 34.821 54.5031 33.894L46.106 25.4969C45.6421 25.033 45.0343 24.8015 44.4264 24.8015C43.8186 24.8015 43.2107 25.033 42.7468 25.4969L37.625 30.6195V23.375C37.625 22.0636 36.5614 21 35.25 21H23.375C22.0636 21 21 22.0636 21 23.375V50.6875C21 55.2787 24.7213 59 29.3125 59H56.625C57.9364 59 59 57.9364 59 56.625V44.75C59 43.4386 57.9364 42.375 56.625 42.375ZM29.3125 52.4688C30.2959 52.4688 31.0938 51.6709 31.0938 50.6875C31.0938 49.7034 30.2959 48.9062 29.3125 48.9062C28.3291 48.9062 27.5312 49.7034 27.5312 50.6875C27.5312 51.6709 28.3291 52.4688 29.3125 52.4688ZM32.6323 54.0756C33.5125 53.2132 34.0625 52.0145 34.0625 50.6875V43.5618H24.5625V50.6868C24.5625 53.3059 26.6933 55.4368 29.3125 55.4368H29.314C29.7281 55.4368 30.123 55.367 30.5059 55.2668C30.8696 55.1733 31.2147 55.0271 31.5465 54.8534C31.5643 54.8439 31.5822 54.8345 31.6002 54.8251L31.6003 54.825L31.6004 54.825C31.6481 54.7999 31.6961 54.7748 31.7424 54.7473C32.0608 54.5602 32.3614 54.3405 32.6323 54.0756ZM34.0625 40H24.5625V34.0625H34.0625V40ZM24.5625 30.5H34.0625V24.5625H24.5625V30.5ZM37.625 35.6575L44.4271 28.8553L51.1447 35.5729L37.625 49.0925V35.6575ZM36.318 55.4375H55.4375V45.9375H45.818L36.318 55.4375Z" fill="white"/>
</svg>
