<svg width="80" height="80" viewBox="0 0 80 80" fill="none" xmlns="http://www.w3.org/2000/svg">
<rect width="80" height="80" rx="20" fill="#57AFFF"/>
<path fill-rule="evenodd" clip-rule="evenodd" d="M35.4203 58.9771L32.4449 58.1385C32.1228 58.0494 31.9311 57.7154 32.0231 57.4037L42.8205 21.4305C42.9125 21.1188 43.2576 20.9333 43.5797 21.0223L46.5551 21.861C46.8772 21.9501 47.0689 22.284 46.9769 22.5958L36.1795 58.5689C36.0875 58.8881 35.75 59.0662 35.4203 58.9771ZM29.7269 49.8155L31.8303 47.7007C32.07 47.4601 32.0468 47.0808 31.7916 46.8621L23.587 40L31.7916 33.1379C32.0546 32.9192 32.07 32.5399 31.8303 32.2993L29.7269 30.1845C29.495 29.9512 29.1006 29.9366 28.8531 30.1554L18.1972 39.577C17.9343 39.8104 17.9343 40.1969 18.1972 40.4302L28.8531 49.8446C29.1006 50.0634 29.4872 50.0488 29.7269 49.8155ZM60.8027 40.4315L50.1486 49.8447C49.901 50.0634 49.5142 50.0488 49.2743 49.8155L47.1698 47.701C46.9299 47.4604 46.9454 47.0812 47.2085 46.8625L55.4176 40.0013L47.2085 33.1401C46.9532 32.9214 46.9299 32.5422 47.1698 32.3016L49.2743 30.1871C49.5064 29.9465 49.901 29.9392 50.1486 30.1579L60.8027 39.5784C61.0658 39.8117 61.0658 40.1982 60.8027 40.4315Z" fill="white"/>
</svg>
