<svg width="102" height="36" viewBox="0 0 102 36" fill="none" xmlns="http://www.w3.org/2000/svg">
<circle cx="16" cy="18" r="16" fill="#CC0000"/>
<g clip-path="url(#clip0_2282_802)">
<path d="M15.5712 27.5999L15.7856 23.4883C15.7887 23.4207 15.7766 23.3533 15.7502 23.2909C15.7238 23.2286 15.6837 23.173 15.633 23.1282C15.5823 23.0834 15.5221 23.0506 15.457 23.0321C15.3919 23.0136 15.3234 23.01 15.2567 23.0214L11.1642 23.7408L11.7169 22.2163C11.7393 22.1556 11.7422 22.0895 11.7251 22.0271C11.708 21.9647 11.6718 21.9092 11.6216 21.8685L7.13843 18.2381L8.14845 17.7665C8.21667 17.7342 8.27077 17.6782 8.30059 17.6089C8.33042 17.5396 8.33392 17.4618 8.31044 17.3901L7.42428 14.6649L10.0065 15.2128C10.0765 15.2274 10.1493 15.2173 10.2127 15.1843C10.2761 15.1513 10.3261 15.0974 10.3543 15.0318L10.8546 13.855L12.8698 16.018C12.9159 16.0666 12.9765 16.0989 13.0425 16.1102C13.1086 16.1214 13.1765 16.111 13.236 16.0804C13.2956 16.0498 13.3437 16.0007 13.373 15.9405C13.4023 15.8803 13.4113 15.8122 13.3987 15.7464L12.4268 10.7344L13.9847 11.6348C14.0213 11.6563 14.0618 11.67 14.1039 11.6751C14.146 11.6802 14.1887 11.6766 14.2294 11.6646C14.27 11.6525 14.3077 11.6322 14.3402 11.605C14.3727 11.5777 14.3993 11.5441 14.4182 11.5062L16 8.3999L17.5817 11.5062C17.6007 11.5441 17.6272 11.5777 17.6597 11.605C17.6922 11.6322 17.7299 11.6525 17.7706 11.6646C17.8112 11.6766 17.8539 11.6802 17.896 11.6751C17.9381 11.67 17.9787 11.6563 18.0153 11.6348L19.5732 10.7344L18.6013 15.7464C18.5886 15.8122 18.5976 15.8803 18.6269 15.9405C18.6563 16.0007 18.7043 16.0498 18.7639 16.0804C18.8235 16.111 18.8914 16.1214 18.9574 16.1102C19.0234 16.0989 19.084 16.0666 19.1301 16.018L21.1454 13.855L21.6456 15.0318C21.6738 15.0974 21.7238 15.1513 21.7872 15.1843C21.8506 15.2173 21.9235 15.2274 21.9934 15.2128L24.5756 14.6649L23.6895 17.3901C23.666 17.4618 23.6695 17.5396 23.6993 17.6089C23.7292 17.6782 23.7833 17.7342 23.8515 17.7665L24.8615 18.2381L20.3783 21.8685C20.3281 21.9092 20.2919 21.9647 20.2748 22.0271C20.2578 22.0895 20.2606 22.1556 20.283 22.2163L20.8357 23.7408L16.7432 23.0214C16.6765 23.01 16.608 23.0136 16.5429 23.0321C16.4778 23.0506 16.4177 23.0834 16.3669 23.1282C16.3162 23.173 16.2761 23.2286 16.2497 23.2909C16.2233 23.3533 16.2112 23.4207 16.2144 23.4883L16.4288 27.5999H15.5712Z" fill="white"/>
</g>
<path d="M52.1029 27C51.9269 26.424 51.7269 25.832 51.5029 25.224C51.2949 24.616 51.0869 24.008 50.8789 23.4H44.3989C44.1909 24.008 43.9749 24.616 43.7509 25.224C43.5429 25.832 43.3509 26.424 43.1749 27H39.2869C39.9109 25.208 40.5029 23.552 41.0629 22.032C41.6229 20.512 42.1669 19.08 42.6949 17.736C43.2389 16.392 43.7669 15.12 44.2789 13.92C44.8069 12.704 45.3509 11.52 45.9109 10.368H49.4869C50.0309 11.52 50.5669 12.704 51.0949 13.92C51.6229 15.12 52.1509 16.392 52.6789 17.736C53.2229 19.08 53.7749 20.512 54.3349 22.032C54.8949 23.552 55.4869 25.208 56.1109 27H52.1029ZM47.6149 14.136C47.5349 14.376 47.4149 14.704 47.2549 15.12C47.0949 15.536 46.9109 16.016 46.7029 16.56C46.4949 17.104 46.2629 17.704 46.0069 18.36C45.7669 19.016 45.5189 19.704 45.2629 20.424H49.9909C49.7349 19.704 49.4869 19.016 49.2469 18.36C49.0069 17.704 48.7749 17.104 48.5509 16.56C48.3429 16.016 48.1589 15.536 47.9989 15.12C47.8389 14.704 47.7109 14.376 47.6149 14.136ZM63.0638 27.24C62.0238 27.224 61.1758 27.112 60.5198 26.904C59.8798 26.696 59.3678 26.408 58.9838 26.04C58.6158 25.656 58.3598 25.2 58.2158 24.672C58.0878 24.128 58.0238 23.52 58.0238 22.848V8.952L61.5998 8.376V22.128C61.5998 22.448 61.6238 22.736 61.6718 22.992C61.7198 23.248 61.8078 23.464 61.9358 23.64C62.0798 23.816 62.2798 23.96 62.5358 24.072C62.7918 24.184 63.1358 24.256 63.5678 24.288L63.0638 27.24ZM70.6575 27.24C69.6175 27.224 68.7695 27.112 68.1135 26.904C67.4735 26.696 66.9615 26.408 66.5775 26.04C66.2095 25.656 65.9535 25.2 65.8095 24.672C65.6815 24.128 65.6175 23.52 65.6175 22.848V8.952L69.1935 8.376V22.128C69.1935 22.448 69.2175 22.736 69.2655 22.992C69.3135 23.248 69.4015 23.464 69.5295 23.64C69.6735 23.816 69.8735 23.96 70.1295 24.072C70.3855 24.184 70.7295 24.256 71.1615 24.288L70.6575 27.24ZM77.3012 25.104C77.3012 25.824 77.0692 26.376 76.6052 26.76C76.1572 27.128 75.6452 27.312 75.0692 27.312C74.4932 27.312 73.9732 27.128 73.5092 26.76C73.0612 26.376 72.8372 25.824 72.8372 25.104C72.8372 24.384 73.0612 23.84 73.5092 23.472C73.9732 23.088 74.4932 22.896 75.0692 22.896C75.6452 22.896 76.1572 23.088 76.6052 23.472C77.0692 23.84 77.3012 24.384 77.3012 25.104ZM78.3769 20.688C78.3769 19.776 78.5209 18.92 78.8089 18.12C79.1129 17.304 79.5449 16.6 80.1049 16.008C80.6649 15.4 81.3449 14.92 82.1449 14.568C82.9449 14.216 83.8569 14.04 84.8809 14.04C85.5529 14.04 86.1689 14.104 86.7289 14.232C87.2889 14.344 87.8329 14.512 88.3609 14.736L87.6169 17.592C87.2809 17.464 86.9129 17.352 86.5129 17.256C86.1129 17.16 85.6649 17.112 85.1689 17.112C84.1129 17.112 83.3209 17.44 82.7929 18.096C82.2809 18.752 82.0249 19.616 82.0249 20.688C82.0249 21.824 82.2649 22.704 82.7449 23.328C83.2409 23.952 84.0969 24.264 85.3129 24.264C85.7449 24.264 86.2089 24.224 86.7049 24.144C87.2009 24.064 87.6569 23.936 88.0729 23.76L88.5769 26.688C88.1609 26.864 87.6409 27.016 87.0169 27.144C86.3929 27.272 85.7049 27.336 84.9529 27.336C83.8009 27.336 82.8089 27.168 81.9769 26.832C81.1449 26.48 80.4569 26.008 79.9129 25.416C79.3849 24.824 78.9929 24.128 78.7369 23.328C78.4969 22.512 78.3769 21.632 78.3769 20.688ZM95.1915 24.504C95.5435 24.504 95.8795 24.496 96.1995 24.48C96.5195 24.464 96.7755 24.44 96.9675 24.408V21.696C96.8235 21.664 96.6075 21.632 96.3195 21.6C96.0315 21.568 95.7675 21.552 95.5275 21.552C95.1915 21.552 94.8715 21.576 94.5675 21.624C94.2795 21.656 94.0235 21.728 93.7995 21.84C93.5755 21.952 93.3995 22.104 93.2715 22.296C93.1435 22.488 93.0795 22.728 93.0795 23.016C93.0795 23.576 93.2635 23.968 93.6315 24.192C94.0155 24.4 94.5355 24.504 95.1915 24.504ZM94.9035 14.04C95.9595 14.04 96.8395 14.16 97.5435 14.4C98.2475 14.64 98.8075 14.984 99.2235 15.432C99.6555 15.88 99.9595 16.424 100.136 17.064C100.312 17.704 100.4 18.416 100.4 19.2V26.64C99.8875 26.752 99.1755 26.88 98.2635 27.024C97.3515 27.184 96.2475 27.264 94.9515 27.264C94.1355 27.264 93.3915 27.192 92.7195 27.048C92.0635 26.904 91.4955 26.672 91.0155 26.352C90.5355 26.016 90.1675 25.584 89.9115 25.056C89.6555 24.528 89.5275 23.88 89.5275 23.112C89.5275 22.376 89.6715 21.752 89.9595 21.24C90.2635 20.728 90.6635 20.32 91.1595 20.016C91.6555 19.712 92.2235 19.496 92.8635 19.368C93.5035 19.224 94.1675 19.152 94.8555 19.152C95.3195 19.152 95.7275 19.176 96.0795 19.224C96.4475 19.256 96.7435 19.304 96.9675 19.368V19.032C96.9675 18.424 96.7835 17.936 96.4155 17.568C96.0475 17.2 95.4075 17.016 94.4955 17.016C93.8875 17.016 93.2875 17.064 92.6955 17.16C92.1035 17.24 91.5915 17.36 91.1595 17.52L90.7035 14.64C90.9115 14.576 91.1675 14.512 91.4715 14.448C91.7915 14.368 92.1355 14.304 92.5035 14.256C92.8715 14.192 93.2555 14.144 93.6555 14.112C94.0715 14.064 94.4875 14.04 94.9035 14.04Z" fill="#282828"/>
<defs>
<clipPath id="clip0_2282_802">
<rect width="19.2" height="19.2" fill="white" transform="translate(6.3999 8.3999)"/>
</clipPath>
</defs>
</svg>
